<svg xmlns="http://www.w3.org/2000/svg" width="800" height="400" viewBox="0 0 800 400" version="1.1"><path d="M 582.169 28.105 C 549.697 30.993, 516.688 41.014, 489.881 56.122 C 481.899 60.621, 477.541 63.976, 479.628 64.017 C 480.107 64.026, 491.300 65.146, 504.500 66.505 C 517.700 67.864, 529.085 68.982, 529.800 68.988 C 530.777 68.997, 530.966 70.426, 530.560 74.750 C 530.264 77.912, 529.563 87.025, 529.004 95 C 528.444 102.975, 527.757 111.890, 527.477 114.812 L 526.968 120.124 533.388 115.543 C 546.529 106.165, 562.621 100.945, 584.787 98.869 L 597.585 97.670 607.914 98.845 C 628.204 101.152, 646.192 107.729, 658.090 117.191 L 663.500 121.494 691 123.146 C 706.125 124.054, 718.624 124.682, 718.775 124.541 C 718.926 124.400, 719.916 112.858, 720.975 98.892 L 722.901 73.500 718.701 69.163 C 706.791 56.867, 683.350 42.979, 663.567 36.499 C 639.547 28.631, 610.240 25.608, 582.169 28.105 M 208 52.523 L 208 57.046 205.494 55.404 L 202.988 53.762 199.956 55.018 C 194.425 57.309, 193.144 64.235, 197.455 68.545 C 200.273 71.364, 203.581 71.682, 206.777 69.443 L 209 67.887 209 69.443 C 209 70.299, 209.450 71, 210 71 C 210.609 71, 211 66.500, 211 59.500 L 211 48 209.500 48 C 208.388 48, 208 49.169, 208 52.523 M 580.555 52.520 L 581.233 57.039 578.616 56.044 C 573.457 54.083, 568.543 57.865, 568.708 63.671 C 568.897 70.365, 575.510 74.133, 580.695 70.501 L 582.834 69.003 583.292 70.251 C 583.598 71.084, 584.085 71.167, 584.756 70.500 C 586.325 68.940, 583.096 48, 581.286 48 L 579.877 48 580.555 52.520 M 629.571 60.191 C 628.549 65.246, 627.500 70.196, 627.240 71.191 C 626.941 72.334, 627.311 73, 628.246 73 C 629.311 73, 630.323 70.192, 631.863 62.962 C 634.373 51.174, 634.385 51, 632.714 51 C 631.895 51, 630.755 54.332, 629.571 60.191 M 591.073 56.635 C 589.933 58.084, 589 60.498, 589 62 C 589 63.502, 589.933 65.916, 591.073 67.365 L 593.145 70 596.950 70 C 599.139 70, 601.292 69.353, 602.020 68.476 C 603.554 66.628, 602.452 65.148, 600.783 66.817 C 599.115 68.485, 595.429 68.286, 593.571 66.429 C 590.869 63.726, 591.806 63, 598 63 L 604 63 604 60.500 C 604 54.262, 595.045 51.585, 591.073 56.635 M 608.131 62.818 C 606.676 74.162, 606.701 75, 608.500 75 C 609.560 75, 610 73.927, 610 71.345 L 610 67.690 611.829 69.345 C 613.870 71.192, 618.177 71.511, 620.961 70.021 C 623.700 68.555, 625.115 63.627, 623.843 59.979 C 622.249 55.407, 616.157 53.243, 613.200 56.200 L 612 57.400 612 55.700 C 612 54.765, 611.384 54, 610.631 54 C 609.661 54, 608.932 56.571, 608.131 62.818 M 218.712 57.012 C 215.368 59.642, 214.434 64.005, 216.400 67.806 C 218.075 71.046, 219.786 72.008, 223.832 71.985 C 227.141 71.966, 229.474 70.576, 228.592 69.150 C 228.121 68.387, 227.227 68.395, 225.505 69.180 L 223.082 70.284 220.541 68.619 C 219.143 67.703, 218 66.341, 218 65.592 L 218 64.230 224.646 64.764 L 231.291 65.297 230.608 62.399 C 229.816 59.039, 225.706 55, 223.079 55 C 222.084 55, 220.119 55.905, 218.712 57.012 M 179.500 57.114 C 176.307 58.926, 175 61.139, 175 64.737 C 175 71.734, 182.766 75.331, 188.365 70.927 L 191 68.855 191 65.038 C 191 62.873, 190.243 60.310, 189.250 59.114 C 187.133 56.564, 182.238 55.560, 179.500 57.114 M 593.200 57.200 C 590.730 59.670, 591.885 61, 596.500 61 C 599.526 61, 601 60.574, 601 59.700 C 601 57.753, 598.869 56, 596.500 56 C 595.345 56, 593.860 56.540, 593.200 57.200 M 199.245 58.155 C 197.008 60.392, 197.724 65.773, 200.500 67.592 L 203 69.230 205.367 67.679 C 208.304 65.755, 209.125 62.887, 207.611 59.834 C 206.291 57.169, 201.244 56.156, 199.245 58.155 M 613.223 58.557 C 609.136 61.419, 611.391 69, 616.329 69 C 618.626 69, 622 65.430, 622 63 C 622 60.764, 618.689 57, 616.723 57 C 616.020 57, 614.445 57.701, 613.223 58.557 M 219.615 59.873 L 217.920 61.746 220.210 62.359 C 223.103 63.134, 228 63.181, 228 62.434 C 228 62.123, 227.534 60.998, 226.965 59.934 C 225.648 57.474, 221.815 57.442, 219.615 59.873 M 572.440 60.451 C 570.479 63.445, 571.269 66.475, 574.576 68.642 L 577 70.230 579.500 68.592 C 584.123 65.563, 581.763 58, 576.194 58 C 575.013 58, 573.323 59.103, 572.440 60.451 M 178.496 61.365 C 176.614 64.239, 177.794 68.284, 181.019 70.010 L 183.134 71.142 185.491 69.598 C 188.735 67.472, 189.509 64.425, 187.560 61.451 C 185.394 58.145, 180.636 58.100, 178.496 61.365 M 160.923 62.923 C 159.161 64.685, 158 66.900, 158 68.500 C 158 71.928, 162.993 77, 166.367 77 C 169.136 77, 174.945 72.617, 173.756 71.425 C 173.347 71.014, 172.187 71.426, 171.177 72.339 C 167.133 75.999, 161 73.415, 161 68.051 C 161 64.447, 163.200 62.656, 166.952 63.206 C 170.126 63.672, 172.019 61.605, 169.355 60.583 C 166.249 59.391, 163.767 60.080, 160.923 62.923 M 638.789 62.363 C 636.039 64.452, 634.928 68.495, 636.144 71.984 C 637.410 75.615, 639.651 77, 644.260 77 C 651.244 77, 654.789 67.968, 649.686 63.174 C 647.062 60.710, 641.510 60.297, 638.789 62.363 M 640 65 C 638.900 66.100, 638 67.900, 638 69 C 638 71.509, 641.401 75, 643.845 75 C 648.419 75, 651.105 67.013, 647.434 64.328 C 644.864 62.449, 642.321 62.679, 640 65 M 657 73.409 L 657 81.755 655.419 83.067 L 653.838 84.380 651.965 83.210 C 649.038 81.382, 648.572 83.674, 651.484 85.581 L 654.031 87.250 657.768 84.660 C 663.198 80.898, 671.358 72.339, 670.199 71.623 C 669.653 71.285, 666.855 73.123, 663.981 75.707 L 658.756 80.404 659.466 73.343 L 660.175 66.281 658.587 65.672 L 657 65.063 657 73.409 M 436 107.090 C 418.125 126.910, 402.151 144.786, 400.501 146.814 C 396.125 152.194, 351.041 202.234, 348.979 204 C 348.016 204.825, 332.042 222.355, 313.482 242.956 L 279.737 280.412 282.118 281.113 C 283.428 281.499, 295.075 282.578, 308 283.510 C 320.925 284.442, 331.665 285.361, 331.866 285.552 C 332.068 285.743, 331.713 297.004, 331.077 310.577 C 330.441 324.149, 330.152 335.486, 330.435 335.769 C 330.718 336.052, 331.749 335.340, 332.725 334.186 C 337.360 328.710, 431.067 224.499, 484 165.954 L 518.500 127.796 520.573 102.148 C 521.713 88.042, 522.554 76.366, 522.442 76.202 C 522.097 75.699, 476.753 70.999, 472.500 71.027 L 468.500 71.052 436 107.090 M 729.665 85 C 729.382 86.375, 728.644 96.050, 728.024 106.500 C 727.405 116.950, 726.666 127.013, 726.382 128.863 L 725.867 132.225 717.684 131.605 C 700.515 130.302, 671.685 128.982, 671.191 129.476 C 670.907 129.759, 673.361 132.806, 676.645 136.246 C 687.039 147.135, 695.045 161.223, 699.422 176.326 C 709.604 211.465, 700.059 252.190, 676.596 273.714 L 670.289 279.500 668.137 302.500 C 666.954 315.150, 665.989 326.927, 665.993 328.670 L 666 331.841 672.250 332.450 C 701.540 335.303, 718.763 336.515, 720.183 335.822 C 723.136 334.382, 739.014 318.825, 744.969 311.538 C 765.972 285.832, 777.124 258.413, 780.051 225.279 L 781.219 212.058 780.027 198.279 C 778.518 180.838, 775.948 167.946, 770.937 152.687 C 762.921 128.274, 750.278 105.850, 733.622 86.500 L 730.179 82.500 729.665 85 M 319.105 119.962 C 314.372 124.288, 311.980 127.158, 312.460 127.936 C 313.006 128.819, 313.863 128.538, 315.602 126.905 C 316.916 125.669, 318.128 124.848, 318.294 125.079 C 318.459 125.311, 319.131 126.747, 319.785 128.270 C 320.440 129.794, 322.218 131.524, 323.738 132.116 L 326.500 133.191 329.980 131.346 C 336.388 127.947, 336.639 119.539, 330.394 117.500 C 328.710 116.950, 327.506 115.979, 327.718 115.342 C 328.752 112.248, 325.829 113.816, 319.105 119.962 M 324.500 119.195 C 320.531 121.446, 319.775 125.582, 322.829 128.345 C 325.259 130.544, 327.567 130.433, 330 128 C 332.654 125.346, 332.552 121.500, 329.777 119.557 C 327.166 117.728, 327.096 117.723, 324.500 119.195 M 337.750 130.589 C 330.637 137.426, 328.731 140, 330.781 140 C 331.210 140, 335.147 136.665, 339.531 132.590 C 344.892 127.605, 347.173 124.846, 346.500 124.160 C 345.826 123.472, 342.976 125.566, 337.750 130.589 M 345 134.885 C 345 135.372, 346.125 136.507, 347.500 137.408 C 348.973 138.373, 350 139.996, 350 141.356 C 350 144.971, 348.983 145.133, 346.300 141.945 C 344.648 139.981, 342.893 139, 341.034 139 C 335.057 139, 334.357 144.991, 339.898 148.716 C 341.767 149.972, 342.914 151, 342.448 151 C 341.982 151, 342.142 151.542, 342.804 152.204 L 344.008 153.408 348.504 148.996 C 354.039 143.564, 354.405 140.360, 349.923 136.589 C 346.767 133.933, 345 133.322, 345 134.885 M 339.309 142.636 C 338.447 144.883, 340.240 147.431, 342.967 147.835 C 346.741 148.393, 347.698 146.371, 345.012 143.513 C 342.289 140.615, 340.208 140.294, 339.309 142.636 M 352.897 151.364 C 345.976 157.728, 346.045 160.823, 352.978 155.018 C 358.020 150.797, 359.822 150.222, 361.800 152.200 C 363.977 154.377, 363.056 157.367, 358.906 161.595 C 353.346 167.261, 355.648 168.261, 361.452 162.701 C 366.320 158.036, 367.364 154.182, 364.406 151.789 C 363.529 151.080, 361.838 149.539, 360.647 148.364 L 358.482 146.228 352.897 151.364 M 435.736 148.250 C 429.611 152.901, 433.543 163, 441.480 163 C 444.592 163, 449 158.923, 449 156.045 C 449 153.159, 447.342 153.500, 446.578 156.543 C 445.896 159.263, 442.707 160.998, 439.791 160.235 L 438.007 159.769 442.130 154.844 C 444.398 152.136, 446.084 149.774, 445.877 149.595 C 442.861 146.997, 438.200 146.379, 435.736 148.250 M 436.200 151.200 C 434.899 152.501, 434.582 156.249, 435.681 157.347 C 436.561 158.228, 442 153.034, 442 151.313 C 442 149.669, 437.812 149.588, 436.200 151.200 M 729.400 158.400 C 725.374 162.426, 724.925 166.725, 728.004 171.775 C 731.787 177.979, 740.229 178.588, 745.250 173.019 C 751.862 165.684, 746.644 155, 736.450 155 L 732.800 155 729.400 158.400 M 731.635 160.073 L 729 162.145 729 166 L 729 169.855 731.635 171.927 C 735.112 174.663, 739.248 174.551, 742.644 171.630 L 745.400 169.259 745.400 165.501 C 745.400 158.669, 737.420 155.522, 731.635 160.073 M 425.171 160.593 C 421.911 162.876, 420.732 165.630, 422 168 C 423.282 170.395, 426.033 170.551, 430.079 168.459 C 435.383 165.716, 437.213 169.834, 432.006 172.797 C 428.721 174.666, 428.126 176, 430.577 176 C 432.289 176, 438 170.759, 438 169.188 C 438 168.656, 437.184 167.214, 436.186 165.982 L 434.372 163.742 429.641 165.835 L 424.909 167.928 424.286 166.304 C 423.878 165.240, 424.621 163.916, 426.440 162.466 C 429.597 159.949, 428.468 158.283, 425.171 160.593 M 48.543 165.931 C 47.823 167.096, 48.634 167.579, 52.819 168.477 L 56.139 169.189 54.688 170.845 C 49.754 176.473, 53.369 183.900, 61.076 183.968 C 63.609 183.991, 65.325 183.283, 66.963 181.539 L 69.274 179.079 68.696 175.517 C 68.379 173.558, 68.495 172.188, 68.954 172.472 C 69.414 172.756, 70.024 172.380, 70.310 171.635 C 70.688 170.649, 68.160 169.566, 60.980 167.641 C 50.004 164.698, 49.360 164.609, 48.543 165.931 M 55.950 173.093 C 54.316 176.147, 55.585 179.858, 58.515 180.593 C 64.707 182.147, 68.643 178.156, 65.560 173.451 C 63.431 170.202, 57.613 169.985, 55.950 173.093 M 412.589 175.077 C 409.875 178.302, 409.459 179.548, 410.817 180.387 C 411.266 180.664, 412.416 179.566, 413.373 177.946 C 414.544 175.963, 415.912 175, 417.557 175 C 420.614 175, 420.608 175.489, 417.500 179.182 C 413.539 183.890, 414.593 189, 419.526 189 C 422.043 189, 426 185.105, 426 182.627 C 426 181.667, 426.419 181.141, 426.931 181.457 C 427.443 181.774, 428.112 181.627, 428.418 181.132 C 429.340 179.641, 420.298 172, 417.611 172 C 416.122 172, 414.174 173.193, 412.589 175.077 M 144 201.480 L 144 226.144 158.750 225.822 L 173.500 225.500 177.244 223.639 C 194.902 214.861, 195.750 189.830, 178.708 180.386 L 173.500 177.500 158.750 177.158 L 144 176.817 144 201.480 M 419.066 180.430 C 416.477 183.186, 416.871 186, 419.846 186 C 422.388 186, 424.230 183.632, 423.827 180.883 C 423.363 177.725, 421.751 177.572, 419.066 180.430 M 742.500 181.510 C 741.950 181.704, 738.237 182.384, 734.250 183.022 C 729.103 183.844, 727 184.603, 727 185.636 L 727 187.091 730.510 186.432 L 734.019 185.774 733.179 188.046 C 731.143 193.548, 734.663 198, 741.048 198 C 743.522 198, 745.333 197.274, 746.826 195.686 C 749.356 192.992, 749.708 187.833, 747.488 185.990 C 746.442 185.122, 746.285 184.362, 746.979 183.525 C 748.630 181.536, 745.906 180.310, 742.500 181.510 M 401.073 187.635 C 398.201 191.286, 398.473 194.626, 401.923 198.077 C 405.907 202.061, 409.975 202.007, 413.411 197.923 C 416.020 194.823, 416.803 192, 415.055 192 C 414.535 192, 413.519 193.238, 412.798 194.750 C 411.832 196.775, 410.631 197.583, 408.243 197.813 C 404.103 198.213, 404.157 197.209, 408.500 193 C 412.475 189.148, 412.841 187.520, 410.066 186.035 C 406.700 184.234, 403.267 184.845, 401.073 187.635 M 736.517 186.626 C 734.265 188.878, 734.977 193.195, 737.834 194.611 C 740.887 196.125, 743.755 195.304, 745.679 192.367 L 747.230 190 745.592 187.500 C 743.663 184.555, 739.033 184.109, 736.517 186.626 M 44 188.369 C 44 189.339, 46.571 190.068, 52.818 190.869 C 64.170 192.325, 66.268 192.306, 65.752 190.750 C 65.503 190.001, 61.760 189.033, 56.418 188.336 C 44.516 186.782, 44 186.784, 44 188.369 M 404.239 187.750 C 401.960 188.516, 400.828 191.811, 402.055 194.104 L 403.181 196.207 406.050 192.854 C 407.628 191.009, 408.937 189.215, 408.959 188.867 C 409.015 187.996, 405.781 187.231, 404.239 187.750 M 206.500 189.665 C 201.867 192.113, 199.877 194.153, 197.881 198.500 C 194.469 205.930, 196.300 217.465, 201.645 222.212 C 209.096 228.828, 225.025 228.318, 231.296 221.262 L 233.092 219.241 229.296 216.244 L 225.500 213.247 222 215.169 C 219.731 216.414, 217.468 216.894, 215.566 216.533 C 212.600 215.970, 209 213.400, 209 211.845 C 209 211.380, 214.625 211, 221.500 211 L 234 211 234 206.316 C 234 199.852, 230.968 194.075, 225.827 190.741 L 221.600 188 215.550 188.040 C 212.030 188.063, 208.245 188.743, 206.500 189.665 M 237.059 193.250 C 238.176 196.137, 241.625 204.912, 244.724 212.750 L 250.359 227 256.524 227 L 262.689 227 269.845 208.692 C 273.780 198.623, 277 189.827, 277 189.146 C 277 188.257, 275.123 187.992, 270.330 188.204 L 263.659 188.500 260.155 199 L 256.650 209.500 253.109 198.750 L 249.568 188 242.299 188 L 235.029 188 237.059 193.250 M 158 201.620 L 158 214.240 164.001 213.806 L 170.002 213.372 172.934 210.563 C 181.517 202.340, 174.911 189.006, 162.250 189.002 L 158 189 158 201.620 M 387 193.900 C 387 194.395, 390.682 198.003, 395.183 201.918 C 400.642 206.666, 403.698 208.702, 404.366 208.034 C 404.916 207.484, 405.172 206.893, 404.933 206.721 C 404.695 206.550, 401.074 203.392, 396.887 199.705 C 389.729 193.400, 387 191.799, 387 193.900 M 50 197.841 C 50 199.199, 53.720 199.971, 60.333 199.986 C 64.558 199.996, 66.053 199.655, 65.753 198.750 C 65.263 197.270, 50 196.389, 50 197.841 M 211 200 C 207.799 203.201, 208.598 204, 215 204 L 221 204 221 202.557 C 221 200.785, 217.196 198, 214.777 198 C 213.800 198, 212.100 198.900, 211 200 M 737 204 C 734.558 206.442, 734.269 213.148, 736.524 215.020 C 738.372 216.554, 739.852 215.452, 738.183 213.783 C 735.606 211.206, 737.384 205, 740.700 205 C 741.622 205, 742 206.744, 742 211 L 742 217 743.865 217 C 747.287 217, 751 213.150, 751 209.602 C 751 202.949, 741.752 199.248, 737 204 M 49.667 205.667 C 47.995 207.339, 49.429 208.001, 54.750 208.015 C 61.798 208.034, 63.258 208.864, 62.830 212.609 L 62.500 215.500 56.250 216.426 C 52.237 217.020, 50 217.820, 50 218.660 L 50 219.969 56.250 219.351 C 63.924 218.591, 66.415 216.757, 65.524 212.523 C 65.174 210.860, 64.865 208.488, 64.838 207.250 L 64.788 205 57.561 205 C 53.586 205, 50.033 205.300, 49.667 205.667 M 384 207 C 380.858 210.142, 381.341 215.268, 385.077 218.411 C 388.937 221.659, 392.388 221.703, 395.545 218.545 C 397.963 216.128, 398.951 211, 397 211 C 396.450 211, 396 211.868, 396 212.929 C 396 215.584, 393.346 218, 390.429 218 C 387.166 218, 387.353 217.116, 391.687 212.053 L 395.373 207.746 393.495 206.373 C 390.784 204.391, 386.314 204.686, 384 207 M 744 209.500 C 744 214.260, 744.861 214.996, 747.429 212.429 C 749.271 210.586, 749.371 209.562, 747.965 206.934 C 746.021 203.302, 744 204.609, 744 209.500 M 385.655 208.829 C 383.720 210.967, 383.505 213.576, 385.177 214.610 C 385.882 215.045, 387.484 213.984, 389.166 211.970 C 391.232 209.496, 391.648 208.395, 390.738 207.817 C 388.796 206.583, 387.443 206.853, 385.655 208.829 M 376.639 214.694 C 376.288 215.046, 376 216.663, 376 218.289 L 376 221.245 374.589 220.074 L 373.178 218.903 372.450 220.080 C 371.666 221.349, 381.569 230.881, 383.750 230.957 C 385.852 231.029, 385.165 229.551, 381.423 225.946 L 377.846 222.500 378.425 218.810 C 378.970 215.341, 378.069 213.265, 376.639 214.694 M 734 221.406 C 734 222.263, 735.706 223.029, 738.572 223.459 C 743.264 224.162, 747 226.840, 747 229.500 C 747 230.325, 747.675 231, 748.500 231 C 750.432 231, 750.412 229.034, 748.453 226.236 L 746.905 224.026 748.453 224.620 C 749.442 225, 750 224.651, 750 223.652 C 750 222.071, 748.561 221.677, 738.750 220.573 L 734 220.038 734 221.406 M 56.500 224.155 C 51.598 226.836, 50.570 231.848, 54.142 235.651 L 56.284 237.931 52.142 238.593 C 49.620 238.997, 48 239.792, 48 240.628 C 48 242.383, 47.692 242.404, 59.750 239.843 C 66.535 238.402, 70 237.216, 70 236.333 C 70 235.600, 69.309 235, 68.465 235 L 66.930 235 68.049 232.909 C 69.410 230.366, 67.692 225.441, 64.929 223.962 C 62.580 222.705, 59.001 222.787, 56.500 224.155 M 56.760 227.250 C 54.786 228.771, 54.359 230.768, 55.371 233.748 C 57.172 239.057, 66 236.785, 66 231.012 C 66 226.600, 60.506 224.363, 56.760 227.250 M 733.571 232.571 C 732.707 233.436, 732 235.490, 732 237.137 C 732 238.784, 731.561 240.951, 731.025 241.953 L 730.050 243.775 734.468 244.888 C 744.061 247.303, 748 245.379, 748 238.277 C 748 233.995, 745.540 233.891, 745.385 238.167 C 745.273 241.251, 742.541 244.452, 740.891 243.433 C 740.443 243.156, 740.509 241.791, 741.038 240.399 C 742.987 235.274, 741.151 231, 737 231 C 735.979 231, 734.436 231.707, 733.571 232.571 M 734.709 234.624 C 733.427 235.907, 733.969 240.729, 735.542 242.035 C 737.640 243.776, 739.138 242.129, 739.341 237.859 L 739.500 234.500 737.459 234.208 C 736.336 234.047, 735.099 234.235, 734.709 234.624 M 728.200 250.200 C 726.742 251.658, 726.629 254.653, 728 255.500 C 728.550 255.840, 729 255.443, 729 254.618 C 729 252.082, 730.837 251.785, 735.973 253.491 L 740.902 255.128 739.976 257.564 L 739.050 260 740.457 260 C 741.232 260, 742.130 259.164, 742.455 258.143 C 742.882 256.796, 743.724 256.416, 745.522 256.759 C 748.520 257.333, 748.960 255.064, 746 254.290 C 744.900 254.002, 744 253.114, 744 252.316 C 744 251.364, 743.369 251.065, 742.167 251.447 C 741.158 251.767, 738.402 251.347, 736.041 250.514 C 730.859 248.686, 729.758 248.642, 728.200 250.200 M 722.973 261.873 C 720.798 264.048, 719.961 265.743, 720.183 267.522 C 720.634 271.132, 722.407 270.685, 723 266.811 C 723.372 264.377, 724.197 263.298, 726.230 262.585 C 727.732 262.059, 729.238 261.905, 729.577 262.244 C 729.916 262.583, 728.913 265.154, 727.347 267.956 L 724.500 273.052 726 274.011 C 730.370 276.803, 737 273.024, 737 267.741 C 737 264.217, 733.240 260.140, 729.290 259.382 L 726.080 258.766 722.973 261.873 M 729.685 267.534 C 727.541 272.030, 727.536 272, 730.465 272 C 733.626 272, 735.505 268.812, 734 266 C 732.490 263.179, 731.613 263.490, 729.685 267.534 M 457.992 273.750 C 457.987 275.262, 457.103 286.625, 456.027 299 L 454.070 321.500 459.785 327.330 C 477.907 345.818, 506.975 363.859, 531.523 371.854 C 573.018 385.368, 625.258 382.769, 670.250 364.953 C 680.794 360.778, 697.838 351.793, 703.963 347.181 L 707.425 344.574 703.963 343.885 C 702.058 343.506, 690.432 342.394, 678.127 341.414 L 655.754 339.631 656.318 334.066 C 658.432 313.227, 660.295 287.961, 659.757 287.423 C 659.404 287.071, 657.852 287.674, 656.308 288.765 C 652.265 291.622, 639.553 297.881, 632.091 300.690 C 611.440 308.464, 588.375 309.407, 565.309 303.422 C 548.183 298.978, 530.172 289.731, 519.520 279.912 L 515.043 275.785 487.772 273.427 C 472.772 272.131, 459.938 271.054, 459.250 271.035 C 458.546 271.015, 457.996 272.202, 457.992 273.750 M 505.220 319.509 C 501.810 326.422, 501.395 328, 502.983 328 C 503.524 328, 505.078 325.806, 506.437 323.125 C 509.143 317.784, 511.127 316.462, 514.072 318.039 C 516.610 319.397, 516.505 321.070, 513.510 326.980 C 511.894 330.169, 511.391 332.124, 512.076 332.547 C 513.369 333.346, 513.274 333.452, 515.880 328.283 C 518.385 323.316, 521.405 321.261, 523.564 323.053 C 525.550 324.702, 525.361 327.372, 522.919 332.159 C 519.871 338.132, 522.043 339.406, 525.310 333.561 C 529.333 326.364, 529.441 325.350, 526.502 322.411 C 524.673 320.582, 523.150 319.929, 521.462 320.252 C 519.708 320.587, 518.877 320.188, 518.436 318.800 C 517.735 316.589, 513.734 314.781, 511.468 315.651 C 510.524 316.013, 510.032 315.758, 510.209 314.998 C 510.369 314.311, 510.036 313.577, 509.470 313.365 C 508.903 313.153, 506.990 315.918, 505.220 319.509 M 184.639 327.694 C 184.288 328.046, 184 329.158, 184 330.167 C 184 331.175, 183.325 332, 182.500 332 C 181.675 332, 181 332.450, 181 333 C 181 333.550, 181.500 334, 182.111 334 C 183.155 334, 182.910 337.128, 181.359 343.606 C 180.764 346.095, 183.302 349, 186.071 349 C 188.645 349, 188.534 347.304, 185.907 346.470 L 183.814 345.806 184.460 342.153 C 185.590 335.768, 186.031 335, 188.567 335 C 191.628 335, 191.775 333.249, 188.750 332.820 C 187.091 332.584, 186.578 331.932, 186.798 330.339 C 187.101 328.136, 185.797 326.537, 184.639 327.694 M 533.264 329.250 C 527.975 334.957, 531.229 343, 538.826 343 C 543.771 343, 547 339.785, 547 334.860 C 547 327.819, 537.997 324.142, 533.264 329.250 M 536.400 329.765 C 534.441 331.073, 532.873 335.024, 533.512 337.039 C 534.987 341.687, 541.764 342.009, 543.805 337.528 C 546.172 332.334, 540.872 326.779, 536.400 329.765 M 572 330.500 C 572 331.325, 572.675 332, 573.500 332 C 574.325 332, 575 331.325, 575 330.500 C 575 329.675, 574.325 329, 573.500 329 C 572.675 329, 572 329.675, 572 330.500 M 226.643 331.513 C 226.963 332.345, 226.640 333.729, 225.926 334.589 C 224.990 335.717, 224.941 336.345, 225.749 336.845 C 226.366 337.226, 227.181 339.884, 227.561 342.751 C 227.942 345.619, 228.846 348.458, 229.571 349.059 C 231.275 350.473, 235.213 349.894, 235.790 348.145 C 236.113 347.166, 235.649 346.977, 234.119 347.462 L 232.002 348.134 230.952 345.373 C 229.255 340.910, 230.107 336.556, 232.750 336.180 C 235.861 335.739, 235.587 334, 232.406 334 C 230.654 334, 229.643 333.351, 229.290 332 C 229.002 330.900, 228.158 330, 227.415 330 C 226.619 330, 226.301 330.622, 226.643 331.513 M 552.639 332.750 C 551.127 338.082, 549.759 346.092, 550.273 346.606 C 551.510 347.843, 552.851 345.839, 553.526 341.745 C 553.911 339.410, 554.680 336.938, 555.236 336.250 C 556.614 334.543, 560.485 334.675, 561.982 336.479 L 563.210 337.958 561.986 343.060 C 561.105 346.731, 561.066 348.466, 561.848 349.248 C 563.115 350.515, 563.442 349.830, 565.006 342.624 L 566.065 337.748 564.559 335.450 C 562.661 332.553, 559.670 331.571, 557.038 332.980 L 555 334.070 555 332.535 C 555 330.434, 553.250 330.593, 552.639 332.750 M 579.433 333.250 C 579.046 334.488, 578.229 335.837, 577.615 336.250 C 576.806 336.794, 576.828 337.213, 577.696 337.776 C 578.362 338.208, 579.028 341.422, 579.196 345.026 L 579.500 351.500 582.750 351.813 C 584.576 351.989, 586 351.661, 586 351.063 C 586 350.479, 585.148 350, 584.107 350 C 581.624 350, 581.092 348.366, 581.731 342.697 L 582.257 338.026 584.629 338.622 C 586.388 339.063, 587 338.801, 587 337.608 C 587 336.559, 586.130 336, 584.500 336 L 582 336 582 333.500 C 582 330.388, 580.375 330.230, 579.433 333.250 M 195.025 335.975 C 188.696 342.304, 194.593 353.288, 202.775 350.410 C 206.674 349.039, 206.016 347.463, 201.700 347.834 C 197.697 348.179, 195 346.749, 195 344.279 L 195 342.804 201 343.500 L 207 344.196 207 341.098 C 207 334.893, 199.371 331.629, 195.025 335.975 M 614.229 336.215 L 612 338.444 612 336.722 C 612 335.775, 611.550 335, 611 335 C 609.857 335, 609.709 339.600, 610.636 346.360 C 611.066 349.500, 611.750 351, 612.749 351 L 614.227 351 613.542 346.433 C 612.792 341.430, 614.700 337, 617.606 337 C 618.465 337, 618.989 336.466, 618.771 335.813 C 618.089 333.767, 616.540 333.904, 614.229 336.215 M 211.858 337.413 L 210.706 339.941 211.933 341.419 C 212.608 342.232, 214.724 343.414, 216.635 344.045 C 219.029 344.835, 220.003 345.706, 219.768 346.846 L 219.426 348.500 215.213 348.311 C 211.007 348.122, 209.589 349.244, 212.582 350.393 C 216.116 351.749, 220.918 351.021, 222.020 348.962 C 223.702 345.821, 222.347 343.440, 217.881 341.685 C 212.808 339.693, 213.129 337.402, 218.435 337.729 C 221.004 337.887, 222.028 337.578, 221.749 336.729 C 221.526 336.053, 219.469 335.362, 217.177 335.193 L 213.009 334.885 211.858 337.413 M 570.541 340.750 C 570.162 343.913, 569.611 347.512, 569.317 348.750 C 568.942 350.331, 569.235 351, 570.304 351 C 571.313 351, 572.022 349.655, 572.412 347 C 572.735 344.800, 573.265 341.200, 573.588 339 L 574.176 335 572.703 335 C 571.657 335, 571.031 336.665, 570.541 340.750 M 196.917 338.083 C 195.771 339.229, 194.983 340.297, 195.167 340.455 C 195.350 340.614, 197.637 341.054, 200.250 341.433 C 205.516 342.198, 206.264 341.264, 203 338 C 200.478 335.478, 199.509 335.491, 196.917 338.083 M 592.174 338.314 C 587.208 343.601, 590.870 352, 598.140 352 C 602.756 352, 606 348.640, 606 343.860 C 606 336.760, 597.019 333.157, 592.174 338.314 M 594.524 339.358 C 590.559 342.258, 593.087 350, 598 350 C 601.028 350, 603.333 347.407, 603.333 344 C 603.333 340.593, 601.028 338, 598 338 C 597.110 338, 595.546 338.611, 594.524 339.358" stroke="none" fill="#04d35b" fill-rule="evenodd"/><path d="M 179.075 29.057 C 162.927 31.499, 144.578 36.568, 129.121 42.858 C 116.422 48.026, 98.009 57.990, 92.276 62.797 L 89.052 65.500 88.039 83 C 87.483 92.625, 86.754 103.497, 86.421 107.160 L 85.815 113.821 92.157 114.407 C 95.646 114.729, 107.950 115.584, 119.500 116.306 L 140.500 117.619 151.500 112.362 C 171.755 102.682, 188.011 98.573, 206 98.587 C 212.325 98.592, 220.200 99.160, 223.500 99.850 C 244.509 104.239, 266.361 115.120, 280.770 128.367 C 283.119 130.526, 285.209 132.114, 285.413 131.896 C 285.754 131.534, 286.252 126.103, 289.063 92.080 C 289.582 85.799, 290.131 80.536, 290.282 80.384 C 290.434 80.233, 301.718 80.884, 315.358 81.832 C 328.997 82.779, 340.359 83.229, 340.605 82.830 C 341.390 81.560, 322.900 66.105, 311.500 58.503 C 286.939 42.125, 264.093 32.938, 237 28.548 C 223.577 26.372, 195.174 26.622, 179.075 29.057 M 208 52.523 L 208 57.046 205.494 55.404 L 202.988 53.762 199.956 55.018 C 194.425 57.309, 193.144 64.235, 197.455 68.545 C 200.273 71.364, 203.581 71.682, 206.777 69.443 L 209 67.887 209 69.443 C 209 70.299, 209.450 71, 210 71 C 210.609 71, 211 66.500, 211 59.500 L 211 48 209.500 48 C 208.388 48, 208 49.169, 208 52.523 M 580.555 52.520 L 581.233 57.039 578.616 56.044 C 573.457 54.083, 568.543 57.865, 568.708 63.671 C 568.897 70.365, 575.510 74.133, 580.695 70.501 L 582.834 69.003 583.292 70.251 C 583.598 71.084, 584.085 71.167, 584.756 70.500 C 586.325 68.940, 583.096 48, 581.286 48 L 579.877 48 580.555 52.520 M 629.571 60.191 C 628.549 65.246, 627.500 70.196, 627.240 71.191 C 626.941 72.334, 627.311 73, 628.246 73 C 629.311 73, 630.323 70.192, 631.863 62.962 C 634.373 51.174, 634.385 51, 632.714 51 C 631.895 51, 630.755 54.332, 629.571 60.191 M 591.073 56.635 C 589.933 58.084, 589 60.498, 589 62 C 589 63.502, 589.933 65.916, 591.073 67.365 L 593.145 70 596.950 70 C 599.139 70, 601.292 69.353, 602.020 68.476 C 603.554 66.628, 602.452 65.148, 600.783 66.817 C 599.115 68.485, 595.429 68.286, 593.571 66.429 C 590.869 63.726, 591.806 63, 598 63 L 604 63 604 60.500 C 604 54.262, 595.045 51.585, 591.073 56.635 M 608.131 62.818 C 606.676 74.162, 606.701 75, 608.500 75 C 609.560 75, 610 73.927, 610 71.345 L 610 67.690 611.829 69.345 C 613.870 71.192, 618.177 71.511, 620.961 70.021 C 623.700 68.555, 625.115 63.627, 623.843 59.979 C 622.249 55.407, 616.157 53.243, 613.200 56.200 L 612 57.400 612 55.700 C 612 54.765, 611.384 54, 610.631 54 C 609.661 54, 608.932 56.571, 608.131 62.818 M 218.712 57.012 C 215.368 59.642, 214.434 64.005, 216.400 67.806 C 218.075 71.046, 219.786 72.008, 223.832 71.985 C 227.141 71.966, 229.474 70.576, 228.592 69.150 C 228.121 68.387, 227.227 68.395, 225.505 69.180 L 223.082 70.284 220.541 68.619 C 219.143 67.703, 218 66.341, 218 65.592 L 218 64.230 224.646 64.764 L 231.291 65.297 230.608 62.399 C 229.816 59.039, 225.706 55, 223.079 55 C 222.084 55, 220.119 55.905, 218.712 57.012 M 179.500 57.114 C 176.307 58.926, 175 61.139, 175 64.737 C 175 71.734, 182.766 75.331, 188.365 70.927 L 191 68.855 191 65.038 C 191 62.873, 190.243 60.310, 189.250 59.114 C 187.133 56.564, 182.238 55.560, 179.500 57.114 M 593.200 57.200 C 590.730 59.670, 591.885 61, 596.500 61 C 599.526 61, 601 60.574, 601 59.700 C 601 57.753, 598.869 56, 596.500 56 C 595.345 56, 593.860 56.540, 593.200 57.200 M 199.245 58.155 C 197.008 60.392, 197.724 65.773, 200.500 67.592 L 203 69.230 205.367 67.679 C 208.304 65.755, 209.125 62.887, 207.611 59.834 C 206.291 57.169, 201.244 56.156, 199.245 58.155 M 613.223 58.557 C 609.136 61.419, 611.391 69, 616.329 69 C 618.626 69, 622 65.430, 622 63 C 622 60.764, 618.689 57, 616.723 57 C 616.020 57, 614.445 57.701, 613.223 58.557 M 219.615 59.873 L 217.920 61.746 220.210 62.359 C 223.103 63.134, 228 63.181, 228 62.434 C 228 62.123, 227.534 60.998, 226.965 59.934 C 225.648 57.474, 221.815 57.442, 219.615 59.873 M 572.440 60.451 C 570.479 63.445, 571.269 66.475, 574.576 68.642 L 577 70.230 579.500 68.592 C 584.123 65.563, 581.763 58, 576.194 58 C 575.013 58, 573.323 59.103, 572.440 60.451 M 178.496 61.365 C 176.614 64.239, 177.794 68.284, 181.019 70.010 L 183.134 71.142 185.491 69.598 C 188.735 67.472, 189.509 64.425, 187.560 61.451 C 185.394 58.145, 180.636 58.100, 178.496 61.365 M 160.923 62.923 C 159.161 64.685, 158 66.900, 158 68.500 C 158 71.928, 162.993 77, 166.367 77 C 169.136 77, 174.945 72.617, 173.756 71.425 C 173.347 71.014, 172.187 71.426, 171.177 72.339 C 167.133 75.999, 161 73.415, 161 68.051 C 161 64.447, 163.200 62.656, 166.952 63.206 C 170.126 63.672, 172.019 61.605, 169.355 60.583 C 166.249 59.391, 163.767 60.080, 160.923 62.923 M 638.789 62.363 C 636.039 64.452, 634.928 68.495, 636.144 71.984 C 637.410 75.615, 639.651 77, 644.260 77 C 651.244 77, 654.789 67.968, 649.686 63.174 C 647.062 60.710, 641.510 60.297, 638.789 62.363 M 640 65 C 638.900 66.100, 638 67.900, 638 69 C 638 71.509, 641.401 75, 643.845 75 C 648.419 75, 651.105 67.013, 647.434 64.328 C 644.864 62.449, 642.321 62.679, 640 65 M 657 73.409 L 657 81.755 655.419 83.067 L 653.838 84.380 651.965 83.210 C 649.038 81.382, 648.572 83.674, 651.484 85.581 L 654.031 87.250 657.768 84.660 C 663.198 80.898, 671.358 72.339, 670.199 71.623 C 669.653 71.285, 666.855 73.123, 663.981 75.707 L 658.756 80.404 659.466 73.343 L 660.175 66.281 658.587 65.672 L 657 65.063 657 73.409 M 70.945 78.380 C 48.077 97.469, 30.446 125.994, 22.534 156.702 C 14.141 189.280, 15.314 227.852, 25.662 259.500 C 31.520 277.419, 42.941 297.726, 52.264 306.803 L 56.685 311.107 69.092 312.041 C 99.539 314.332, 109.409 314.924, 109.848 314.486 C 110.106 314.227, 110.662 309.624, 111.083 304.258 C 111.503 298.891, 112.365 287.910, 112.997 279.855 L 114.147 265.209 110.611 260.287 C 97.984 242.711, 91.214 211.567, 94.966 188.308 C 98.137 168.652, 108.942 147.482, 123.810 131.796 L 129.216 126.092 126.858 125.592 C 125.561 125.316, 113.732 124.390, 100.572 123.534 C 87.411 122.678, 76.458 121.791, 76.230 121.564 C 75.700 121.033, 77.949 77.077, 78.626 74.750 C 79.457 71.892, 77.751 72.698, 70.945 78.380 M 299.576 95.176 C 298.034 109.177, 296.021 145.204, 296.716 146.362 C 298.441 149.238, 348.387 204.035, 349.048 203.777 C 349.438 203.625, 361.066 190.958, 374.887 175.630 L 400.016 147.760 396.758 144.126 C 394.966 142.128, 384.368 130.274, 373.207 117.784 L 352.914 95.075 349.707 94.563 C 347.943 94.282, 337.725 93.361, 327 92.517 C 316.275 91.673, 305.849 90.728, 303.831 90.417 L 300.162 89.852 299.576 95.176 M 319.105 119.962 C 314.372 124.288, 311.980 127.158, 312.460 127.936 C 313.006 128.819, 313.863 128.538, 315.602 126.905 C 316.916 125.669, 318.128 124.848, 318.294 125.079 C 318.459 125.311, 319.131 126.747, 319.785 128.270 C 320.440 129.794, 322.218 131.524, 323.738 132.116 L 326.500 133.191 329.980 131.346 C 336.388 127.947, 336.639 119.539, 330.394 117.500 C 328.710 116.950, 327.506 115.979, 327.718 115.342 C 328.752 112.248, 325.829 113.816, 319.105 119.962 M 324.500 119.195 C 320.531 121.446, 319.775 125.582, 322.829 128.345 C 325.259 130.544, 327.567 130.433, 330 128 C 332.654 125.346, 332.552 121.500, 329.777 119.557 C 327.166 117.728, 327.096 117.723, 324.500 119.195 M 337.750 130.589 C 330.637 137.426, 328.731 140, 330.781 140 C 331.210 140, 335.147 136.665, 339.531 132.590 C 344.892 127.605, 347.173 124.846, 346.500 124.160 C 345.826 123.472, 342.976 125.566, 337.750 130.589 M 345 134.885 C 345 135.372, 346.125 136.507, 347.500 137.408 C 348.973 138.373, 350 139.996, 350 141.356 C 350 144.971, 348.983 145.133, 346.300 141.945 C 344.648 139.981, 342.893 139, 341.034 139 C 335.057 139, 334.357 144.991, 339.898 148.716 C 341.767 149.972, 342.914 151, 342.448 151 C 341.982 151, 342.142 151.542, 342.804 152.204 L 344.008 153.408 348.504 148.996 C 354.039 143.564, 354.405 140.360, 349.923 136.589 C 346.767 133.933, 345 133.322, 345 134.885 M 339.309 142.636 C 338.447 144.883, 340.240 147.431, 342.967 147.835 C 346.741 148.393, 347.698 146.371, 345.012 143.513 C 342.289 140.615, 340.208 140.294, 339.309 142.636 M 352.897 151.364 C 345.976 157.728, 346.045 160.823, 352.978 155.018 C 358.020 150.797, 359.822 150.222, 361.800 152.200 C 363.977 154.377, 363.056 157.367, 358.906 161.595 C 353.346 167.261, 355.648 168.261, 361.452 162.701 C 366.320 158.036, 367.364 154.182, 364.406 151.789 C 363.529 151.080, 361.838 149.539, 360.647 148.364 L 358.482 146.228 352.897 151.364 M 435.736 148.250 C 429.611 152.901, 433.543 163, 441.480 163 C 444.592 163, 449 158.923, 449 156.045 C 449 153.159, 447.342 153.500, 446.578 156.543 C 445.896 159.263, 442.707 160.998, 439.791 160.235 L 438.007 159.769 442.130 154.844 C 444.398 152.136, 446.084 149.774, 445.877 149.595 C 442.861 146.997, 438.200 146.379, 435.736 148.250 M 436.200 151.200 C 434.899 152.501, 434.582 156.249, 435.681 157.347 C 436.561 158.228, 442 153.034, 442 151.313 C 442 149.669, 437.812 149.588, 436.200 151.200 M 729.400 158.400 C 725.374 162.426, 724.925 166.725, 728.004 171.775 C 731.787 177.979, 740.229 178.588, 745.250 173.019 C 751.862 165.684, 746.644 155, 736.450 155 L 732.800 155 729.400 158.400 M 731.635 160.073 L 729 162.145 729 166 L 729 169.855 731.635 171.927 C 735.112 174.663, 739.248 174.551, 742.644 171.630 L 745.400 169.259 745.400 165.501 C 745.400 158.669, 737.420 155.522, 731.635 160.073 M 425.171 160.593 C 421.911 162.876, 420.732 165.630, 422 168 C 423.282 170.395, 426.033 170.551, 430.079 168.459 C 435.383 165.716, 437.213 169.834, 432.006 172.797 C 428.721 174.666, 428.126 176, 430.577 176 C 432.289 176, 438 170.759, 438 169.188 C 438 168.656, 437.184 167.214, 436.186 165.982 L 434.372 163.742 429.641 165.835 L 424.909 167.928 424.286 166.304 C 423.878 165.240, 424.621 163.916, 426.440 162.466 C 429.597 159.949, 428.468 158.283, 425.171 160.593 M 48.543 165.931 C 47.823 167.096, 48.634 167.579, 52.819 168.477 L 56.139 169.189 54.688 170.845 C 49.754 176.473, 53.369 183.900, 61.076 183.968 C 63.609 183.991, 65.325 183.283, 66.963 181.539 L 69.274 179.079 68.696 175.517 C 68.379 173.558, 68.495 172.188, 68.954 172.472 C 69.414 172.756, 70.024 172.380, 70.310 171.635 C 70.688 170.649, 68.160 169.566, 60.980 167.641 C 50.004 164.698, 49.360 164.609, 48.543 165.931 M 55.950 173.093 C 54.316 176.147, 55.585 179.858, 58.515 180.593 C 64.707 182.147, 68.643 178.156, 65.560 173.451 C 63.431 170.202, 57.613 169.985, 55.950 173.093 M 412.589 175.077 C 409.875 178.302, 409.459 179.548, 410.817 180.387 C 411.266 180.664, 412.416 179.566, 413.373 177.946 C 414.544 175.963, 415.912 175, 417.557 175 C 420.614 175, 420.608 175.489, 417.500 179.182 C 413.539 183.890, 414.593 189, 419.526 189 C 422.043 189, 426 185.105, 426 182.627 C 426 181.667, 426.419 181.141, 426.931 181.457 C 427.443 181.774, 428.112 181.627, 428.418 181.132 C 429.340 179.641, 420.298 172, 417.611 172 C 416.122 172, 414.174 173.193, 412.589 175.077 M 534.591 177.513 C 525.702 180.908, 519.756 187.902, 517.899 197.148 L 516.779 202.727 518.429 208.405 C 525.033 231.119, 557.098 233.760, 568.321 212.513 C 571.128 207.199, 571.278 196.085, 568.612 191 C 566.029 186.075, 561.188 181.181, 556.500 178.754 C 551.306 176.066, 540.049 175.428, 534.591 177.513 M 419.066 180.430 C 416.477 183.186, 416.871 186, 419.846 186 C 422.388 186, 424.230 183.632, 423.827 180.883 C 423.363 177.725, 421.751 177.572, 419.066 180.430 M 742.500 181.510 C 741.950 181.704, 738.237 182.384, 734.250 183.022 C 729.103 183.844, 727 184.603, 727 185.636 L 727 187.091 730.510 186.432 L 734.019 185.774 733.179 188.046 C 731.143 193.548, 734.663 198, 741.048 198 C 743.522 198, 745.333 197.274, 746.826 195.686 C 749.356 192.992, 749.708 187.833, 747.488 185.990 C 746.442 185.122, 746.285 184.362, 746.979 183.525 C 748.630 181.536, 745.906 180.310, 742.500 181.510 M 401.073 187.635 C 398.201 191.286, 398.473 194.626, 401.923 198.077 C 405.907 202.061, 409.975 202.007, 413.411 197.923 C 416.020 194.823, 416.803 192, 415.055 192 C 414.535 192, 413.519 193.238, 412.798 194.750 C 411.832 196.775, 410.631 197.583, 408.243 197.813 C 404.103 198.213, 404.157 197.209, 408.500 193 C 412.475 189.148, 412.841 187.520, 410.066 186.035 C 406.700 184.234, 403.267 184.845, 401.073 187.635 M 736.517 186.626 C 734.265 188.878, 734.977 193.195, 737.834 194.611 C 740.887 196.125, 743.755 195.304, 745.679 192.367 L 747.230 190 745.592 187.500 C 743.663 184.555, 739.033 184.109, 736.517 186.626 M 44 188.369 C 44 189.339, 46.571 190.068, 52.818 190.869 C 64.170 192.325, 66.268 192.306, 65.752 190.750 C 65.503 190.001, 61.760 189.033, 56.418 188.336 C 44.516 186.782, 44 186.784, 44 188.369 M 404.239 187.750 C 401.960 188.516, 400.828 191.811, 402.055 194.104 L 403.181 196.207 406.050 192.854 C 407.628 191.009, 408.937 189.215, 408.959 188.867 C 409.015 187.996, 405.781 187.231, 404.239 187.750 M 577 213 L 577 238 583.500 238 L 590 238 590 230.534 L 590 223.067 593.537 225.154 L 597.074 227.241 602.379 226.802 C 612.604 225.954, 618.012 219.191, 617.984 207.290 L 617.967 200.500 615.718 196.530 C 614.481 194.346, 611.947 191.533, 610.087 190.280 C 605.675 187.307, 597.871 187.172, 593.250 189.989 L 590 191.971 590 189.985 L 590 188 583.500 188 L 577 188 577 213 M 628.898 190.287 C 624.661 193.138, 622.711 198.368, 624.061 203.259 C 625.352 207.936, 627.589 209.707, 635.474 212.295 C 639.168 213.508, 642.260 214.950, 642.345 215.500 C 642.638 217.394, 636.055 217.118, 631.355 215.039 L 626.645 212.956 625.786 214.228 C 624.415 216.258, 622 220.852, 622 221.430 C 622 223.183, 631.281 226.367, 637.593 226.780 C 649.026 227.526, 655 223.223, 655 214.242 C 655 207.905, 652.093 205.653, 637.250 200.497 C 636.563 200.258, 636 199.599, 636 199.031 C 636 197.510, 641.534 197.778, 645.654 199.500 C 647.629 200.325, 649.405 201, 649.602 201 C 650.033 201, 654 193.326, 654 192.491 C 654 190.725, 644.932 188.042, 638.898 188.022 L 632.296 188 628.898 190.287 M 537.217 190.561 C 528.967 196.339, 530.956 210.649, 540.444 213.776 C 553.161 217.967, 562.178 200.837, 552.037 191.750 L 548.968 189 544.207 189 C 541.510 189, 538.479 189.677, 537.217 190.561 M 387 193.900 C 387 194.395, 390.682 198.003, 395.183 201.918 C 400.642 206.666, 403.698 208.702, 404.366 208.034 C 404.916 207.484, 405.172 206.893, 404.933 206.721 C 404.695 206.550, 401.074 203.392, 396.887 199.705 C 389.729 193.400, 387 191.799, 387 193.900 M 50 197.841 C 50 199.199, 53.720 199.971, 60.333 199.986 C 64.558 199.996, 66.053 199.655, 65.753 198.750 C 65.263 197.270, 50 196.389, 50 197.841 M 593.025 200.975 C 588.699 205.301, 589.707 212.807, 594.902 214.959 C 598.220 216.334, 602.382 215.024, 603.939 212.114 C 608.168 204.211, 599.072 194.928, 593.025 200.975 M 737 204 C 734.558 206.442, 734.269 213.148, 736.524 215.020 C 738.372 216.554, 739.852 215.452, 738.183 213.783 C 735.606 211.206, 737.384 205, 740.700 205 C 741.622 205, 742 206.744, 742 211 L 742 217 743.865 217 C 747.287 217, 751 213.150, 751 209.602 C 751 202.949, 741.752 199.248, 737 204 M 424.078 232.012 L 398.865 260.025 402.183 263.855 C 417.752 281.830, 444.558 310.822, 445.065 310.233 C 445.413 309.830, 446.733 298.925, 448 286 C 449.267 273.075, 450.627 262.130, 451.023 261.678 C 451.419 261.227, 463.360 261.780, 477.558 262.908 C 491.757 264.036, 503.500 264.833, 503.655 264.679 C 504.026 264.307, 450.677 204.161, 449.895 204.070 C 449.562 204.032, 437.945 216.606, 424.078 232.012 M 49.667 205.667 C 47.995 207.339, 49.429 208.001, 54.750 208.015 C 61.798 208.034, 63.258 208.864, 62.830 212.609 L 62.500 215.500 56.250 216.426 C 52.237 217.020, 50 217.820, 50 218.660 L 50 219.969 56.250 219.351 C 63.924 218.591, 66.415 216.757, 65.524 212.523 C 65.174 210.860, 64.865 208.488, 64.838 207.250 L 64.788 205 57.561 205 C 53.586 205, 50.033 205.300, 49.667 205.667 M 384 207 C 380.858 210.142, 381.341 215.268, 385.077 218.411 C 388.937 221.659, 392.388 221.703, 395.545 218.545 C 397.963 216.128, 398.951 211, 397 211 C 396.450 211, 396 211.868, 396 212.929 C 396 215.584, 393.346 218, 390.429 218 C 387.166 218, 387.353 217.116, 391.687 212.053 L 395.373 207.746 393.495 206.373 C 390.784 204.391, 386.314 204.686, 384 207 M 744 209.500 C 744 214.260, 744.861 214.996, 747.429 212.429 C 749.271 210.586, 749.371 209.562, 747.965 206.934 C 746.021 203.302, 744 204.609, 744 209.500 M 385.655 208.829 C 383.720 210.967, 383.505 213.576, 385.177 214.610 C 385.882 215.045, 387.484 213.984, 389.166 211.970 C 391.232 209.496, 391.648 208.395, 390.738 207.817 C 388.796 206.583, 387.443 206.853, 385.655 208.829 M 376.639 214.694 C 376.288 215.046, 376 216.663, 376 218.289 L 376 221.245 374.589 220.074 L 373.178 218.903 372.450 220.080 C 371.666 221.349, 381.569 230.881, 383.750 230.957 C 385.852 231.029, 385.165 229.551, 381.423 225.946 L 377.846 222.500 378.425 218.810 C 378.970 215.341, 378.069 213.265, 376.639 214.694 M 734 221.406 C 734 222.263, 735.706 223.029, 738.572 223.459 C 743.264 224.162, 747 226.840, 747 229.500 C 747 230.325, 747.675 231, 748.500 231 C 750.432 231, 750.412 229.034, 748.453 226.236 L 746.905 224.026 748.453 224.620 C 749.442 225, 750 224.651, 750 223.652 C 750 222.071, 748.561 221.677, 738.750 220.573 L 734 220.038 734 221.406 M 56.500 224.155 C 51.598 226.836, 50.570 231.848, 54.142 235.651 L 56.284 237.931 52.142 238.593 C 49.620 238.997, 48 239.792, 48 240.628 C 48 242.383, 47.692 242.404, 59.750 239.843 C 66.535 238.402, 70 237.216, 70 236.333 C 70 235.600, 69.309 235, 68.465 235 L 66.930 235 68.049 232.909 C 69.410 230.366, 67.692 225.441, 64.929 223.962 C 62.580 222.705, 59.001 222.787, 56.500 224.155 M 56.760 227.250 C 54.786 228.771, 54.359 230.768, 55.371 233.748 C 57.172 239.057, 66 236.785, 66 231.012 C 66 226.600, 60.506 224.363, 56.760 227.250 M 733.571 232.571 C 732.707 233.436, 732 235.490, 732 237.137 C 732 238.784, 731.561 240.951, 731.025 241.953 L 730.050 243.775 734.468 244.888 C 744.061 247.303, 748 245.379, 748 238.277 C 748 233.995, 745.540 233.891, 745.385 238.167 C 745.273 241.251, 742.541 244.452, 740.891 243.433 C 740.443 243.156, 740.509 241.791, 741.038 240.399 C 742.987 235.274, 741.151 231, 737 231 C 735.979 231, 734.436 231.707, 733.571 232.571 M 734.709 234.624 C 733.427 235.907, 733.969 240.729, 735.542 242.035 C 737.640 243.776, 739.138 242.129, 739.341 237.859 L 739.500 234.500 737.459 234.208 C 736.336 234.047, 735.099 234.235, 734.709 234.624 M 728.200 250.200 C 726.742 251.658, 726.629 254.653, 728 255.500 C 728.550 255.840, 729 255.443, 729 254.618 C 729 252.082, 730.837 251.785, 735.973 253.491 L 740.902 255.128 739.976 257.564 L 739.050 260 740.457 260 C 741.232 260, 742.130 259.164, 742.455 258.143 C 742.882 256.796, 743.724 256.416, 745.522 256.759 C 748.520 257.333, 748.960 255.064, 746 254.290 C 744.900 254.002, 744 253.114, 744 252.316 C 744 251.364, 743.369 251.065, 742.167 251.447 C 741.158 251.767, 738.402 251.347, 736.041 250.514 C 730.859 248.686, 729.758 248.642, 728.200 250.200 M 722.973 261.873 C 720.798 264.048, 719.961 265.743, 720.183 267.522 C 720.634 271.132, 722.407 270.685, 723 266.811 C 723.372 264.377, 724.197 263.298, 726.230 262.585 C 727.732 262.059, 729.238 261.905, 729.577 262.244 C 729.916 262.583, 728.913 265.154, 727.347 267.956 L 724.500 273.052 726 274.011 C 730.370 276.803, 737 273.024, 737 267.741 C 737 264.217, 733.240 260.140, 729.290 259.382 L 726.080 258.766 722.973 261.873 M 729.685 267.534 C 727.541 272.030, 727.536 272, 730.465 272 C 733.626 272, 735.505 268.812, 734 266 C 732.490 263.179, 731.613 263.490, 729.685 267.534 M 122.639 276.784 C 122.378 277.728, 121.367 288.962, 120.391 301.750 L 118.616 325 115.058 324.991 C 113.101 324.987, 106.550 324.566, 100.500 324.057 C 94.450 323.548, 84.100 322.829, 77.500 322.459 L 65.500 321.786 69.500 325.981 C 85.437 342.695, 116.989 361.766, 143 370.410 C 201.434 389.828, 268.088 381.712, 312.559 349.765 L 319.888 344.500 320.452 338.500 C 321.252 329.979, 322.797 294.619, 322.401 293.902 C 322.219 293.574, 317.217 292.991, 311.285 292.608 C 305.353 292.225, 293.307 291.330, 284.515 290.620 L 268.529 289.329 263.589 292.242 C 252.321 298.886, 235.352 304.511, 219.308 306.920 C 188.974 311.475, 155.368 301.372, 128.806 279.712 L 123.113 275.069 122.639 276.784 M 505.220 319.509 C 501.810 326.422, 501.395 328, 502.983 328 C 503.524 328, 505.078 325.806, 506.437 323.125 C 509.143 317.784, 511.127 316.462, 514.072 318.039 C 516.610 319.397, 516.505 321.070, 513.510 326.980 C 511.894 330.169, 511.391 332.124, 512.076 332.547 C 513.369 333.346, 513.274 333.452, 515.880 328.283 C 518.385 323.316, 521.405 321.261, 523.564 323.053 C 525.550 324.702, 525.361 327.372, 522.919 332.159 C 519.871 338.132, 522.043 339.406, 525.310 333.561 C 529.333 326.364, 529.441 325.350, 526.502 322.411 C 524.673 320.582, 523.150 319.929, 521.462 320.252 C 519.708 320.587, 518.877 320.188, 518.436 318.800 C 517.735 316.589, 513.734 314.781, 511.468 315.651 C 510.524 316.013, 510.032 315.758, 510.209 314.998 C 510.369 314.311, 510.036 313.577, 509.470 313.365 C 508.903 313.153, 506.990 315.918, 505.220 319.509 M 184.639 327.694 C 184.288 328.046, 184 329.158, 184 330.167 C 184 331.175, 183.325 332, 182.500 332 C 181.675 332, 181 332.450, 181 333 C 181 333.550, 181.500 334, 182.111 334 C 183.155 334, 182.910 337.128, 181.359 343.606 C 180.764 346.095, 183.302 349, 186.071 349 C 188.645 349, 188.534 347.304, 185.907 346.470 L 183.814 345.806 184.460 342.153 C 185.590 335.768, 186.031 335, 188.567 335 C 191.628 335, 191.775 333.249, 188.750 332.820 C 187.091 332.584, 186.578 331.932, 186.798 330.339 C 187.101 328.136, 185.797 326.537, 184.639 327.694 M 533.264 329.250 C 527.975 334.957, 531.229 343, 538.826 343 C 543.771 343, 547 339.785, 547 334.860 C 547 327.819, 537.997 324.142, 533.264 329.250 M 536.400 329.765 C 534.441 331.073, 532.873 335.024, 533.512 337.039 C 534.987 341.687, 541.764 342.009, 543.805 337.528 C 546.172 332.334, 540.872 326.779, 536.400 329.765 M 572 330.500 C 572 331.325, 572.675 332, 573.500 332 C 574.325 332, 575 331.325, 575 330.500 C 575 329.675, 574.325 329, 573.500 329 C 572.675 329, 572 329.675, 572 330.500 M 226.643 331.513 C 226.963 332.345, 226.640 333.729, 225.926 334.589 C 224.990 335.717, 224.941 336.345, 225.749 336.845 C 226.366 337.226, 227.181 339.884, 227.561 342.751 C 227.942 345.619, 228.846 348.458, 229.571 349.059 C 231.275 350.473, 235.213 349.894, 235.790 348.145 C 236.113 347.166, 235.649 346.977, 234.119 347.462 L 232.002 348.134 230.952 345.373 C 229.255 340.910, 230.107 336.556, 232.750 336.180 C 235.861 335.739, 235.587 334, 232.406 334 C 230.654 334, 229.643 333.351, 229.290 332 C 229.002 330.900, 228.158 330, 227.415 330 C 226.619 330, 226.301 330.622, 226.643 331.513 M 552.639 332.750 C 551.127 338.082, 549.759 346.092, 550.273 346.606 C 551.510 347.843, 552.851 345.839, 553.526 341.745 C 553.911 339.410, 554.680 336.938, 555.236 336.250 C 556.614 334.543, 560.485 334.675, 561.982 336.479 L 563.210 337.958 561.986 343.060 C 561.105 346.731, 561.066 348.466, 561.848 349.248 C 563.115 350.515, 563.442 349.830, 565.006 342.624 L 566.065 337.748 564.559 335.450 C 562.661 332.553, 559.670 331.571, 557.038 332.980 L 555 334.070 555 332.535 C 555 330.434, 553.250 330.593, 552.639 332.750 M 579.433 333.250 C 579.046 334.488, 578.229 335.837, 577.615 336.250 C 576.806 336.794, 576.828 337.213, 577.696 337.776 C 578.362 338.208, 579.028 341.422, 579.196 345.026 L 579.500 351.500 582.750 351.813 C 584.576 351.989, 586 351.661, 586 351.063 C 586 350.479, 585.148 350, 584.107 350 C 581.624 350, 581.092 348.366, 581.731 342.697 L 582.257 338.026 584.629 338.622 C 586.388 339.063, 587 338.801, 587 337.608 C 587 336.559, 586.130 336, 584.500 336 L 582 336 582 333.500 C 582 330.388, 580.375 330.230, 579.433 333.250 M 195.025 335.975 C 188.696 342.304, 194.593 353.288, 202.775 350.410 C 206.674 349.039, 206.016 347.463, 201.700 347.834 C 197.697 348.179, 195 346.749, 195 344.279 L 195 342.804 201 343.500 L 207 344.196 207 341.098 C 207 334.893, 199.371 331.629, 195.025 335.975 M 614.229 336.215 L 612 338.444 612 336.722 C 612 335.775, 611.550 335, 611 335 C 609.857 335, 609.709 339.600, 610.636 346.360 C 611.066 349.500, 611.750 351, 612.749 351 L 614.227 351 613.542 346.433 C 612.792 341.430, 614.700 337, 617.606 337 C 618.465 337, 618.989 336.466, 618.771 335.813 C 618.089 333.767, 616.540 333.904, 614.229 336.215 M 211.858 337.413 L 210.706 339.941 211.933 341.419 C 212.608 342.232, 214.724 343.414, 216.635 344.045 C 219.029 344.835, 220.003 345.706, 219.768 346.846 L 219.426 348.500 215.213 348.311 C 211.007 348.122, 209.589 349.244, 212.582 350.393 C 216.116 351.749, 220.918 351.021, 222.020 348.962 C 223.702 345.821, 222.347 343.440, 217.881 341.685 C 212.808 339.693, 213.129 337.402, 218.435 337.729 C 221.004 337.887, 222.028 337.578, 221.749 336.729 C 221.526 336.053, 219.469 335.362, 217.177 335.193 L 213.009 334.885 211.858 337.413 M 570.541 340.750 C 570.162 343.913, 569.611 347.512, 569.317 348.750 C 568.942 350.331, 569.235 351, 570.304 351 C 571.313 351, 572.022 349.655, 572.412 347 C 572.735 344.800, 573.265 341.200, 573.588 339 L 574.176 335 572.703 335 C 571.657 335, 571.031 336.665, 570.541 340.750 M 196.917 338.083 C 195.771 339.229, 194.983 340.297, 195.167 340.455 C 195.350 340.614, 197.637 341.054, 200.250 341.433 C 205.516 342.198, 206.264 341.264, 203 338 C 200.478 335.478, 199.509 335.491, 196.917 338.083 M 592.174 338.314 C 587.208 343.601, 590.870 352, 598.140 352 C 602.756 352, 606 348.640, 606 343.860 C 606 336.760, 597.019 333.157, 592.174 338.314 M 594.524 339.358 C 590.559 342.258, 593.087 350, 598 350 C 601.028 350, 603.333 347.407, 603.333 344 C 603.333 340.593, 601.028 338, 598 338 C 597.110 338, 595.546 338.611, 594.524 339.358" stroke="none" fill="#0c2d44" fill-rule="evenodd"/></svg>